<mxfile host="app.diagrams.net" modified="2024-09-14T14:50:59.312Z" agent="Mozilla/5.0 (Macintosh; Intel Mac OS X 10.15; rv:130.0) Gecko/20100101 Firefox/130.0" etag="fs6Pp6zaA6eP4sAZ4aBy" version="24.2.8" type="github">
  <diagram name="Page-1" id="jCGwE1LBPZgif49EneUD">
    <mxGraphModel dx="1440" dy="921" grid="1" gridSize="10" guides="1" tooltips="1" connect="1" arrows="1" fold="1" page="1" pageScale="1" pageWidth="1200" pageHeight="1920" math="0" shadow="0">
      <root>
        <mxCell id="0" />
        <mxCell id="1" parent="0" />
        <mxCell id="nu3RnHburqwjy4xu8POM-3" value="&lt;div&gt;&lt;font size=&quot;1&quot;&gt;&lt;b style=&quot;font-size: 32px;&quot;&gt;SHARATH&#39;S PORTFOLIO&lt;/b&gt;&lt;/font&gt;&lt;/div&gt;&lt;div style=&quot;font-size: 18px;&quot;&gt;&lt;font style=&quot;font-size: 18px;&quot;&gt;&lt;b style=&quot;&quot;&gt;Home &lt;span style=&quot;white-space: pre;&quot;&gt;&#x9;&lt;/span&gt;&lt;/b&gt;&lt;b&gt;About &lt;span style=&quot;white-space: pre;&quot;&gt;&#x9;&lt;/span&gt;Projects &lt;span style=&quot;white-space: pre;&quot;&gt;&#x9;&lt;/span&gt;Certifications &amp;amp; Experience &lt;span style=&quot;white-space: pre;&quot;&gt;&#x9;&lt;/span&gt;Education &lt;span style=&quot;white-space: pre;&quot;&gt;&#x9;&lt;/span&gt;Blogs &amp;amp; Contact&lt;br&gt;&lt;/b&gt;&lt;/font&gt;&lt;/div&gt;" style="text;html=1;align=center;verticalAlign=middle;whiteSpace=wrap;rounded=0;strokeColor=none;" parent="1" vertex="1">
          <mxGeometry width="1200" height="100" as="geometry" />
        </mxCell>
        <mxCell id="nu3RnHburqwjy4xu8POM-8" style="edgeStyle=orthogonalEdgeStyle;rounded=0;orthogonalLoop=1;jettySize=auto;html=1;" parent="1" source="Gbr0lDLeI2ae-f9VhBkv-17" edge="1">
          <mxGeometry relative="1" as="geometry">
            <mxPoint x="300" y="1680" as="targetPoint" />
            <mxPoint x="300" y="740" as="sourcePoint" />
          </mxGeometry>
        </mxCell>
        <mxCell id="nu3RnHburqwjy4xu8POM-9" style="edgeStyle=orthogonalEdgeStyle;rounded=0;orthogonalLoop=1;jettySize=auto;html=1;" parent="1" source="Gbr0lDLeI2ae-f9VhBkv-19" edge="1">
          <mxGeometry relative="1" as="geometry">
            <mxPoint x="600" y="1530" as="targetPoint" />
          </mxGeometry>
        </mxCell>
        <mxCell id="nu3RnHburqwjy4xu8POM-10" style="edgeStyle=orthogonalEdgeStyle;rounded=0;orthogonalLoop=1;jettySize=auto;html=1;exitX=0.75;exitY=1;exitDx=0;exitDy=0;" parent="1" source="nu3RnHburqwjy4xu8POM-5" edge="1">
          <mxGeometry relative="1" as="geometry">
            <mxPoint x="900" y="1150" as="targetPoint" />
          </mxGeometry>
        </mxCell>
        <mxCell id="nu3RnHburqwjy4xu8POM-5" value="&lt;h1&gt;&lt;font style=&quot;font-size: 48px;&quot;&gt;Welcome to Sharath&#39;s Portfolio&lt;/font&gt;&lt;/h1&gt;&lt;br&gt;        &lt;p&gt;&lt;font style=&quot;font-size: 18px;&quot;&gt;Highlighting my journey from mobile app development to machine learning and beyond.&lt;/font&gt;&lt;/p&gt;&lt;p&gt;&lt;font style=&quot;font-size: 18px;&quot;&gt;&lt;br&gt;&lt;/font&gt;&lt;/p&gt;&lt;p&gt;&lt;font style=&quot;font-size: 18px;&quot;&gt;&lt;br&gt;&lt;/font&gt;&lt;/p&gt;" style="text;html=1;align=center;verticalAlign=middle;whiteSpace=wrap;rounded=0;" parent="1" vertex="1">
          <mxGeometry y="110" width="1200" height="400" as="geometry" />
        </mxCell>
        <mxCell id="nu3RnHburqwjy4xu8POM-6" value="&lt;b&gt;&lt;font style=&quot;font-size: 20px;&quot;&gt;Explore My Projects&lt;/font&gt;&lt;/b&gt;" style="text;html=1;align=center;verticalAlign=middle;whiteSpace=wrap;rounded=0;" parent="1" vertex="1">
          <mxGeometry x="480" y="380" width="240" height="30" as="geometry" />
        </mxCell>
        <mxCell id="nu3RnHburqwjy4xu8POM-15" value="" style="edgeStyle=orthogonalEdgeStyle;rounded=0;orthogonalLoop=1;jettySize=auto;html=1;exitX=0.25;exitY=1;exitDx=0;exitDy=0;" parent="1" source="nu3RnHburqwjy4xu8POM-5" target="nu3RnHburqwjy4xu8POM-14" edge="1">
          <mxGeometry relative="1" as="geometry">
            <mxPoint x="301" y="600" as="targetPoint" />
            <mxPoint x="300" y="510" as="sourcePoint" />
          </mxGeometry>
        </mxCell>
        <mxCell id="Gbr0lDLeI2ae-f9VhBkv-13" value="&lt;font style=&quot;font-size: 24px;&quot;&gt;&lt;b&gt;Projects&lt;/b&gt;&lt;/font&gt;" style="text;html=1;align=center;verticalAlign=middle;whiteSpace=wrap;rounded=0;" vertex="1" parent="1">
          <mxGeometry y="920" width="1200" height="30" as="geometry" />
        </mxCell>
        <mxCell id="Gbr0lDLeI2ae-f9VhBkv-18" value="" style="edgeStyle=orthogonalEdgeStyle;rounded=0;orthogonalLoop=1;jettySize=auto;html=1;" edge="1" parent="1" source="nu3RnHburqwjy4xu8POM-18" target="Gbr0lDLeI2ae-f9VhBkv-17">
          <mxGeometry relative="1" as="geometry">
            <mxPoint x="300" y="1140" as="targetPoint" />
            <mxPoint x="300" y="850" as="sourcePoint" />
          </mxGeometry>
        </mxCell>
        <mxCell id="Gbr0lDLeI2ae-f9VhBkv-17" value="" style="shape=image;html=1;verticalAlign=top;verticalLabelPosition=bottom;labelBackgroundColor=#ffffff;imageAspect=0;aspect=fixed;image=https://cdn2.iconfinder.com/data/icons/crystalproject/128x128/mimetypes/image.png" vertex="1" parent="1">
          <mxGeometry x="225" y="980" width="150" height="150" as="geometry" />
        </mxCell>
        <mxCell id="Gbr0lDLeI2ae-f9VhBkv-20" value="" style="edgeStyle=orthogonalEdgeStyle;rounded=0;orthogonalLoop=1;jettySize=auto;html=1;" edge="1" parent="1" source="nu3RnHburqwjy4xu8POM-5" target="Gbr0lDLeI2ae-f9VhBkv-19">
          <mxGeometry relative="1" as="geometry">
            <mxPoint x="600" y="1270" as="targetPoint" />
            <mxPoint x="600" y="510" as="sourcePoint" />
          </mxGeometry>
        </mxCell>
        <mxCell id="Gbr0lDLeI2ae-f9VhBkv-19" value="" style="shape=image;html=1;verticalAlign=top;verticalLabelPosition=bottom;labelBackgroundColor=#ffffff;imageAspect=0;aspect=fixed;image=https://cdn2.iconfinder.com/data/icons/crystalproject/128x128/mimetypes/image.png" vertex="1" parent="1">
          <mxGeometry x="525" y="980" width="150" height="150" as="geometry" />
        </mxCell>
        <mxCell id="Gbr0lDLeI2ae-f9VhBkv-21" value="" style="shape=image;html=1;verticalAlign=top;verticalLabelPosition=bottom;labelBackgroundColor=#ffffff;imageAspect=0;aspect=fixed;image=https://cdn2.iconfinder.com/data/icons/crystalproject/128x128/mimetypes/image.png" vertex="1" parent="1">
          <mxGeometry x="825" y="980" width="150" height="150" as="geometry" />
        </mxCell>
        <mxCell id="Gbr0lDLeI2ae-f9VhBkv-22" value="&lt;font style=&quot;font-size: 20px;&quot;&gt;&lt;b&gt;Project Name&lt;br&gt;&lt;/b&gt;&lt;/font&gt;" style="text;html=1;align=center;verticalAlign=middle;whiteSpace=wrap;rounded=0;" vertex="1" parent="1">
          <mxGeometry x="201" y="1120" width="200" height="30" as="geometry" />
        </mxCell>
        <mxCell id="Gbr0lDLeI2ae-f9VhBkv-23" value="&lt;font style=&quot;font-size: 20px;&quot;&gt;&lt;b&gt;Project Name&lt;br&gt;&lt;/b&gt;&lt;/font&gt;" style="text;html=1;align=center;verticalAlign=middle;whiteSpace=wrap;rounded=0;" vertex="1" parent="1">
          <mxGeometry x="500" y="1120" width="200" height="30" as="geometry" />
        </mxCell>
        <mxCell id="Gbr0lDLeI2ae-f9VhBkv-25" style="edgeStyle=orthogonalEdgeStyle;rounded=0;orthogonalLoop=1;jettySize=auto;html=1;" edge="1" parent="1" source="Gbr0lDLeI2ae-f9VhBkv-24">
          <mxGeometry relative="1" as="geometry">
            <mxPoint x="900" y="1570" as="targetPoint" />
          </mxGeometry>
        </mxCell>
        <mxCell id="Gbr0lDLeI2ae-f9VhBkv-24" value="&lt;font style=&quot;font-size: 20px;&quot;&gt;&lt;b&gt;Project Name&lt;br&gt;&lt;/b&gt;&lt;/font&gt;" style="text;html=1;align=center;verticalAlign=middle;whiteSpace=wrap;rounded=0;" vertex="1" parent="1">
          <mxGeometry x="800" y="1120" width="200" height="30" as="geometry" />
        </mxCell>
        <mxCell id="Gbr0lDLeI2ae-f9VhBkv-27" value="&lt;font style=&quot;font-size: 16px;&quot;&gt;Used machine learning techniques to recognize human activity via smartphone sensors.&lt;/font&gt;" style="text;html=1;align=center;verticalAlign=middle;whiteSpace=wrap;rounded=0;" vertex="1" parent="1">
          <mxGeometry x="161" y="1160" width="280" height="80" as="geometry" />
        </mxCell>
        <mxCell id="Gbr0lDLeI2ae-f9VhBkv-28" value="&lt;font style=&quot;font-size: 16px;&quot;&gt;Used machine learning techniques to recognize human activity via smartphone sensors.&lt;/font&gt;" style="text;html=1;align=center;verticalAlign=middle;whiteSpace=wrap;rounded=0;" vertex="1" parent="1">
          <mxGeometry x="460" y="1160" width="280" height="80" as="geometry" />
        </mxCell>
        <mxCell id="Gbr0lDLeI2ae-f9VhBkv-29" value="&lt;font style=&quot;font-size: 16px;&quot;&gt;Used machine learning techniques to recognize human activity via smartphone sensors.&lt;/font&gt;" style="text;html=1;align=center;verticalAlign=middle;whiteSpace=wrap;rounded=0;" vertex="1" parent="1">
          <mxGeometry x="760" y="1160" width="280" height="80" as="geometry" />
        </mxCell>
        <mxCell id="nu3RnHburqwjy4xu8POM-11" value="" style="html=1;verticalLabelPosition=bottom;align=center;labelBackgroundColor=#ffffff;verticalAlign=top;strokeWidth=2;strokeColor=#0080F0;shadow=0;dashed=0;shape=mxgraph.ios7.icons.user;" parent="1" vertex="1">
          <mxGeometry x="226" y="600" width="150" height="150" as="geometry" />
        </mxCell>
        <mxCell id="nu3RnHburqwjy4xu8POM-14" value="&lt;b style=&quot;font-size: 24px;&quot;&gt;About Me&lt;br&gt;&lt;/b&gt;" style="text;html=1;align=center;verticalAlign=middle;whiteSpace=wrap;rounded=0;" parent="1" vertex="1">
          <mxGeometry y="540" width="600" height="30" as="geometry" />
        </mxCell>
        <mxCell id="nu3RnHburqwjy4xu8POM-17" value="" style="edgeStyle=orthogonalEdgeStyle;rounded=0;orthogonalLoop=1;jettySize=auto;html=1;" parent="1" target="nu3RnHburqwjy4xu8POM-16" edge="1">
          <mxGeometry relative="1" as="geometry">
            <mxPoint x="300" y="1140" as="targetPoint" />
            <mxPoint x="300" y="740" as="sourcePoint" />
          </mxGeometry>
        </mxCell>
        <mxCell id="nu3RnHburqwjy4xu8POM-16" value="&lt;font style=&quot;font-size: 20px;&quot;&gt;&lt;b&gt;&lt;font style=&quot;font-size: 20px;&quot;&gt;Sharath Chandra&lt;/font&gt;&lt;/b&gt;&lt;/font&gt;" style="text;html=1;align=center;verticalAlign=middle;whiteSpace=wrap;rounded=0;" parent="1" vertex="1">
          <mxGeometry y="770" width="600" height="30" as="geometry" />
        </mxCell>
        <mxCell id="nu3RnHburqwjy4xu8POM-19" value="" style="edgeStyle=orthogonalEdgeStyle;rounded=0;orthogonalLoop=1;jettySize=auto;html=1;" parent="1" source="nu3RnHburqwjy4xu8POM-16" target="nu3RnHburqwjy4xu8POM-18" edge="1">
          <mxGeometry relative="1" as="geometry">
            <mxPoint x="300" y="1140" as="targetPoint" />
            <mxPoint x="300" y="800" as="sourcePoint" />
          </mxGeometry>
        </mxCell>
        <mxCell id="nu3RnHburqwjy4xu8POM-18" value="&lt;font style=&quot;font-size: 16px;&quot;&gt;I&#39;m a Computer Science Engineer with experience in machine learning and mobile app development.&lt;/font&gt;" style="text;html=1;align=center;verticalAlign=middle;whiteSpace=wrap;rounded=0;" parent="1" vertex="1">
          <mxGeometry x="80" y="820" width="440" height="30" as="geometry" />
        </mxCell>
        <mxCell id="Gbr0lDLeI2ae-f9VhBkv-1" value="&lt;font style=&quot;font-size: 24px;&quot;&gt;&lt;b&gt;Skills&lt;/b&gt;&lt;/font&gt;" style="text;html=1;align=center;verticalAlign=middle;whiteSpace=wrap;rounded=0;" vertex="1" parent="1">
          <mxGeometry x="600" y="540" width="600" height="30" as="geometry" />
        </mxCell>
        <mxCell id="Gbr0lDLeI2ae-f9VhBkv-3" value="&lt;font style=&quot;font-size: 16px;&quot;&gt;Python&lt;/font&gt;" style="text;html=1;align=center;verticalAlign=middle;whiteSpace=wrap;rounded=0;" vertex="1" parent="1">
          <mxGeometry x="680" y="600" width="440" height="40" as="geometry" />
        </mxCell>
        <mxCell id="Gbr0lDLeI2ae-f9VhBkv-10" value="&lt;font style=&quot;font-size: 16px;&quot;&gt;Python&lt;/font&gt;" style="text;html=1;align=center;verticalAlign=middle;whiteSpace=wrap;rounded=0;" vertex="1" parent="1">
          <mxGeometry x="680" y="655" width="440" height="40" as="geometry" />
        </mxCell>
        <mxCell id="Gbr0lDLeI2ae-f9VhBkv-11" value="&lt;font style=&quot;font-size: 16px;&quot;&gt;Python&lt;/font&gt;" style="text;html=1;align=center;verticalAlign=middle;whiteSpace=wrap;rounded=0;" vertex="1" parent="1">
          <mxGeometry x="680" y="720" width="440" height="40" as="geometry" />
        </mxCell>
        <mxCell id="Gbr0lDLeI2ae-f9VhBkv-12" value="&lt;font style=&quot;font-size: 16px;&quot;&gt;Python&lt;/font&gt;" style="text;html=1;align=center;verticalAlign=middle;whiteSpace=wrap;rounded=0;" vertex="1" parent="1">
          <mxGeometry x="680" y="780" width="440" height="40" as="geometry" />
        </mxCell>
      </root>
    </mxGraphModel>
  </diagram>
</mxfile>
